{
    "asset" : {
        "generator" : "Khronos glTF Blender I/O v1.7.33",
        "version" : "2.0"
    },
    "scene" : 0,
    "scenes" : [
        {
            "name" : "Scene",
            "nodes" : [
                1,
                2,
                3,
                4
            ]
        }
    ],
    "nodes" : [
        {
            "mesh" : 0,
            "name" : "TireRubber.002",
            "translation" : [
                0.1288667917251587,
                4.70280647277832e-05,
                -0.0020322799682617188
            ]
        },
        {
            "children" : [
                0
            ],
            "mesh" : 1,
            "name" : "bmw27-Wheel.Ft.L"
        },
        {
            "name" : "Brake2",
            "translation" : [
                -1.617514967918396,
                -0.4487793445587158,
                -0.03524560108780861
            ]
        },
        {
            "name" : "WGT-CarRig.Wheel"
        },
        {
            "name" : "WGT-CarRig.WheelBrake"
        }
    ],
    "materials" : [
        {
            "doubleSided" : true,
            "name" : "TireRubber",
            "pbrMetallicRoughness" : {}
        },
        {
            "doubleSided" : true,
            "name" : "ChromeMatte",
            "pbrMetallicRoughness" : {}
        }
    ],
    "meshes" : [
        {
            "name" : "Mesh.011",
            "primitives" : [
                {
                    "attributes" : {
                        "POSITION" : 0,
                        "NORMAL" : 1,
                        "TEXCOORD_0" : 2
                    },
                    "indices" : 3,
                    "material" : 0
                }
            ]
        },
        {
            "name" : "Plane.006",
            "primitives" : [
                {
                    "attributes" : {
                        "POSITION" : 4,
                        "NORMAL" : 5,
                        "COLOR_0" : 6
                    },
                    "indices" : 7,
                    "material" : 1
                }
            ]
        }
    ],
    "accessors" : [
        {
            "bufferView" : 0,
            "componentType" : 5126,
            "count" : 8957,
            "max" : [
                0.11996861547231674,
                0.46946823596954346,
                0.4689231216907501
            ],
            "min" : [
                -0.197846919298172,
                -0.46893659234046936,
                -0.46934017539024353
            ],
            "type" : "VEC3"
        },
        {
            "bufferView" : 1,
            "componentType" : 5126,
            "count" : 8957,
            "type" : "VEC3"
        },
        {
            "bufferView" : 2,
            "componentType" : 5126,
            "count" : 8957,
            "type" : "VEC2"
        },
        {
            "bufferView" : 3,
            "componentType" : 5123,
            "count" : 52152,
            "type" : "SCALAR"
        },
        {
            "bufferView" : 4,
            "componentType" : 5126,
            "count" : 468,
            "max" : [
                0.25481897592544556,
                0.4057472348213196,
                6.6769700879376614e-09
            ],
            "min" : [
                -0.032751306891441345,
                0,
                -0.40574732422828674
            ],
            "type" : "VEC3"
        },
        {
            "bufferView" : 5,
            "componentType" : 5126,
            "count" : 468,
            "type" : "VEC3"
        },
        {
            "bufferView" : 6,
            "componentType" : 5123,
            "count" : 468,
            "normalized" : true,
            "type" : "VEC4"
        },
        {
            "bufferView" : 7,
            "componentType" : 5123,
            "count" : 2532,
            "type" : "SCALAR"
        }
    ],
    "bufferViews" : [
        {
            "buffer" : 0,
            "byteLength" : 107484,
            "byteOffset" : 0
        },
        {
            "buffer" : 0,
            "byteLength" : 107484,
            "byteOffset" : 107484
        },
        {
            "buffer" : 0,
            "byteLength" : 71656,
            "byteOffset" : 214968
        },
        {
            "buffer" : 0,
            "byteLength" : 104304,
            "byteOffset" : 286624
        },
        {
            "buffer" : 0,
            "byteLength" : 5616,
            "byteOffset" : 390928
        },
        {
            "buffer" : 0,
            "byteLength" : 5616,
            "byteOffset" : 396544
        },
        {
            "buffer" : 0,
            "byteLength" : 3744,
            "byteOffset" : 402160
        },
        {
            "buffer" : 0,
            "byteLength" : 5064,
            "byteOffset" : 405904
        }
    ],
    "buffers" : [
        {
            "byteLength" : 410968,
            "uri" : "data:application/octet-stream;base64,"
        }
    ]
}
